<?xml version="1.0" encoding="UTF-8"?>
<svg width="86px" height="88px" viewBox="0 0 86 88" version="1.1" xmlns="http://www.w3.org/2000/svg" xmlns:xlink="http://www.w3.org/1999/xlink">
    <title>Group 2</title>
    <g id="Page-2" stroke="none" stroke-width="1" fill="none" fill-rule="evenodd">
        <g id="logo-Point---alternatif-4" transform="translate(-263.000000, -469.000000)">
            <g id="Group-83" transform="translate(177.000000, 183.280000)">
                <g id="Group-2" transform="translate(86.000000, 286.720000)">
                    <path d="M0,77.6 C0,81.709 3.331,85.039 7.44,85.039 L77.599,85.039 C81.708,85.039 85.039,81.709 85.039,77.6 L85.039,7.442 C85.039,3.332 81.708,0 77.599,0 L7.44,0 C3.331,0 0,3.332 0,7.442 L0,77.6 Z" id="Fill-33" fill="#218542"></path>
                    <path d="M28.2207,32.5766 C28.2207,22.2626 36.5927,13.8736 46.8757,13.8736 C57.2057,13.8736 65.6097,22.2626 65.6097,32.5766 C65.6097,42.8616 57.2057,51.2306 46.8757,51.2306 L28.2207,51.2306 L28.2207,32.5766 Z M9.8247,60.0806 L19.3707,60.0806 L19.3707,68.2056 C19.3707,69.0996 19.4627,70.0106 19.6797,70.9206 C19.9087,71.9066 20.1877,72.7716 20.5407,73.5416 C22.6077,77.9356 27.0787,80.7876 31.9517,80.7876 C32.8467,80.7876 33.7087,80.6806 34.6187,80.4636 C35.0797,80.3716 35.4507,80.2796 35.8217,80.1396 C39.6607,78.8876 43.2527,75.7626 44.5487,72.5216 C44.7337,72.0316 44.8717,71.5646 44.9637,71.0746 C45.1807,70.1976 45.2877,69.2876 45.2877,68.2056 L45.2877,67.3906 L35.6987,65.9086 L35.6987,68.2566 C35.6987,70.3346 34.0167,72.0156 31.9517,72.0156 C29.8697,72.0156 28.1887,70.3346 28.2047,68.1116 L28.2047,60.8536 L46.9077,60.8536 C61.1377,60.8536 73.1947,50.2446 74.9507,36.1546 C75.1217,35.0566 75.2137,33.8426 75.2137,32.5606 C75.2137,25.7136 72.7007,19.0706 68.1527,13.8876 C67.1527,12.7506 66.0717,11.7156 64.9457,10.7896 C59.9187,6.5646 53.5037,4.2526 46.9077,4.2526 C31.2867,4.2526 18.6007,16.9556 18.6007,32.5606 L18.6007,51.2446 L11.2147,51.2446 L9.8247,60.0806 Z" id="Fill-37" fill="#FFFFFE"></path>
                    <path d="M35.6982,39.8363 C35.6982,42.5203 37.7952,44.6173 40.4932,44.6173 C43.1762,44.6173 45.2722,42.5203 45.2722,39.8363 C45.2722,37.1523 43.1762,35.0573 40.4932,35.0573 C37.8412,35.0573 35.6982,37.2013 35.6982,39.8363" id="Fill-41" fill="#FFFFFE"></path>
                </g>
            </g>
        </g>
    </g>
</svg>